# xmcd CD database file
#
# Track frame offsets:
#	150
#	13036
#	30926
#	49954
#	67084
#	80198
#	94805
#	107760
#	120678
#	137566
#	150686
#	164288
#	180788
#
# Disc length: 2566 seconds
#
# Revision: 1
# Processed by: cddbd v1.5.1PL2 Copyright (c) Steve Scherf et al.
# Submitted via: CDex 1.51
#
DISCID=a40a040d
DTITLE=Davin James - Nowhere Lounge
DYEAR=1999
DGENRE=Country
TTITLE0=Damned Ol' Guitar
TTITLE1=I'll Always Be Here
TTITLE2=Head Over Heels
TTITLE3=Things Ain't Like They Used to Be
TTITLE4=Seat of my Pants
TTITLE5=Bless my Broken Heart
TTITLE6=Sight For Sore Eyes
TTITLE7=I Want To Share It With You
TTITLE8=Opportunity Don't Knock Twice
TTITLE9=It Could Be Much Worse
TTITLE10=Nowhere Lounge
TTITLE11=When You Lose Someone
TTITLE12=Nowhere Lounge (Live) w/ Mike James
EXTD=YEAR: 1999
EXTT0=
EXTT1=
EXTT2=
EXTT3=
EXTT4=
EXTT5=
EXTT6=
EXTT7=
EXTT8=
EXTT9=
EXTT10=
EXTT11=
EXTT12=
PLAYORDER=
